<svg fill="none" xmlns="http://www.w3.org/2000/svg" viewBox="0 0 40 40" class="design-iconfont">
  <rect x=".5" y=".5" width="39" height="39" rx="19.5" stroke="#fff" stroke-opacity=".25"/>
  <path d="M26.5054 25.3587C26.4211 25.1087 25.688 24.7947 25.4571 24.2929C25.2262 23.791 25.4149 23.5209 25.0594 23.269C25.0117 23.2343 24.9586 23.2142 24.9018 23.2015C25.0264 22.873 25.0301 22.424 25.0136 21.8327C24.9714 20.2869 24.2933 19.3597 23.9286 18.9071C23.4924 18.3651 23.3421 18.1607 23.0067 17.6351C22.6823 17.1277 22.3377 16.5035 22.3268 15.8319C22.3121 15.038 22.2846 14.1255 21.9071 13.4374C21.5295 12.7494 20.5911 12.0704 19.2643 12.4354C17.8457 12.826 17.8109 14.0141 17.7486 14.892C17.6863 15.7698 18.0876 16.394 17.7504 17.5036C17.4132 18.6133 16.8267 19.0257 16.5445 19.5824C15.8462 20.9603 15.6977 21.0826 15.3917 21.7925C15.0526 22.5755 15.3074 23.039 15.3074 23.039L15.322 23.0774C15.2011 23.3 15.1369 23.5227 14.994 23.5829C14.7081 23.7034 14.0299 23.5209 13.799 23.7508C13.5681 23.9808 13.9108 25.3733 13.7569 25.6306C13.6029 25.8879 13.4636 25.8806 13.4636 26.2986C13.4636 26.7165 13.9255 26.6746 15.7289 27.2805C17.5323 27.8864 17.8677 27.7185 18.2874 27.1965C18.3571 27.1107 18.401 27.0158 18.4267 26.9155C18.9783 26.8662 19.5355 26.8224 19.8599 26.8205C20.5802 26.8169 21.5882 27.0432 22.0573 27.1582C22.1252 27.3389 22.2241 27.4849 22.3561 27.5524C22.7336 27.7404 23.6152 27.7203 24.1393 27.2184C24.6635 26.7165 25.9849 26.0705 26.1535 25.9025C26.3221 25.7346 26.5879 25.6087 26.5054 25.3587V25.3587ZM18.9564 15.7224C18.9362 15.4852 18.8061 15.3045 18.6649 15.3154C18.5238 15.3264 18.4248 15.5289 18.445 15.7644C18.456 15.8958 18.5018 16.0108 18.5641 16.0838C18.5421 16.1038 18.522 16.1221 18.5018 16.1403C18.3992 16.0071 18.3131 15.7936 18.2911 15.5326C18.2526 15.0818 18.4285 14.7278 18.6118 14.7131H18.6246C18.8024 14.7131 19.0278 15.0234 19.0645 15.4687C19.0718 15.5636 19.07 15.653 19.0626 15.737C19.0279 15.7517 18.9937 15.7675 18.96 15.7845C18.9582 15.7662 18.9582 15.7443 18.9564 15.7224ZM18.6123 16.0522L18.6094 16.0551C18.6094 16.0522 18.6094 16.0522 18.6123 16.0522ZM18.4304 16.2042C18.4414 16.1945 18.4505 16.1848 18.4615 16.175C18.4505 16.1867 18.4414 16.1964 18.4304 16.2042ZM18.467 16.1714C18.478 16.1622 18.489 16.1513 18.5 16.1422C18.489 16.1531 18.478 16.1622 18.467 16.1714V16.1714ZM18.7676 16.6021C18.8134 16.5638 18.8574 16.5236 18.8995 16.4853C19.0956 16.3064 19.2276 16.1969 19.4035 16.1896C19.4237 16.1878 19.4439 16.1878 19.464 16.1878C19.7628 16.1878 20.0652 16.2936 20.4757 16.5455C20.5123 16.5674 20.5472 16.5875 20.5802 16.6075C20.4732 16.7034 20.3638 16.7965 20.2521 16.8868C19.9607 17.1222 19.7444 17.2682 19.6326 17.3303C19.5501 17.2938 19.3999 17.2117 19.1763 17.0584C18.9325 16.8904 18.7456 16.7335 18.6979 16.686C18.7163 16.6568 18.7401 16.6258 18.7676 16.6021ZM20.527 15.9712C20.5362 15.9799 20.5472 15.9887 20.5563 15.9974C20.5472 15.9887 20.538 15.9799 20.527 15.9712ZM20.5582 15.2771C20.3822 15.268 20.2154 15.4559 20.1861 15.6969C20.181 15.7338 20.1803 15.7711 20.1843 15.8082C20.1165 15.7808 20.0487 15.7589 19.9827 15.7388C19.9754 15.6585 19.9754 15.5746 19.9864 15.4906C20.012 15.2716 20.0981 15.0672 20.2246 14.9194C20.3382 14.788 20.4702 14.715 20.5966 14.715H20.615C20.7103 14.7205 20.7964 14.7661 20.8679 14.8518C20.998 15.0051 21.0567 15.2552 21.0255 15.5198C20.9998 15.7388 20.9137 15.9432 20.7872 16.0911C20.7818 16.0965 20.7763 16.1038 20.7708 16.1093L20.7543 16.0984C20.7286 16.0819 20.7029 16.0673 20.6773 16.0527C20.7543 15.9761 20.8092 15.8611 20.8258 15.7297C20.8514 15.4888 20.7341 15.2862 20.5582 15.2771ZM20.6315 16.04C20.6205 16.0312 20.6095 16.0195 20.5985 16.0108C20.6113 16.0195 20.6223 16.0283 20.6315 16.04ZM20.384 15.9027C20.375 15.8969 20.3638 15.891 20.3547 15.8852C20.3638 15.891 20.3728 15.8969 20.384 15.9027ZM20.3162 15.8693C20.3056 15.8635 20.2976 15.8606 20.2869 15.8547C20.2976 15.8605 20.3082 15.8664 20.3162 15.8693ZM19.8778 15.7182C19.8808 15.7182 19.8837 15.7211 19.8896 15.7211C19.8837 15.7182 19.8808 15.7182 19.8778 15.7182ZM20.8184 16.1385C20.8019 16.1294 20.7854 16.1184 20.7689 16.1093C20.7854 16.1203 20.8019 16.1294 20.8184 16.1385ZM20.943 16.2201C20.9339 16.2113 20.9229 16.2026 20.9119 16.1938C20.9229 16.2026 20.932 16.2113 20.943 16.2201H20.943ZM20.9082 16.1969C20.8954 16.1879 20.8807 16.1767 20.8661 16.1677C20.8807 16.1767 20.8954 16.1879 20.9082 16.1969ZM21.4635 25.4554C21.1337 25.7547 20.8807 25.8788 20.6956 25.9956C20.3492 26.2147 19.7902 26.3479 19.2093 26.2603C18.8409 26.2055 18.511 26.0522 18.2214 25.8788C18.1518 25.7438 18.0821 25.6343 18.0308 25.5686C17.9025 25.3989 17.0301 24.1706 16.484 23.4041C16.4547 23.2471 16.44 23.0938 16.4418 22.9478C16.4528 22.0499 16.7039 21.0005 16.9092 20.7541C16.9715 20.6793 17.4297 19.3798 17.5378 19.1042C17.7376 18.6023 18.0455 18.0129 18.2068 17.6679C18.3167 17.3832 18.3332 17.1843 18.3186 17.0492C18.5 17.2372 19.3504 17.876 19.6546 17.876H19.6601C19.913 17.8705 20.8826 17.0839 21.2143 16.7225C21.2454 16.8539 21.4086 17.1149 21.513 17.3668C21.8172 18.1005 22.171 19.4729 22.7373 20.2339C22.7758 20.2869 22.8711 20.4657 22.8894 20.5351C23.1093 21.3217 23.0653 21.9166 22.9297 23.0847C22.8693 23.0646 22.7996 23.0482 22.708 23.0409C22.3213 23.0099 22.1838 23.1668 22.1838 23.1668C22.1838 23.1668 22.1618 24.0319 22.1197 24.8331C22.0867 24.8696 22.0519 24.9061 22.017 24.9426C21.8191 25.1397 21.6358 25.3094 21.4635 25.4554Z" fill="#fff"/>
</svg>
